<svg xmlns="http://www.w3.org/2000/svg" width="185" height="99" viewBox="0 0 185 99">
    <g fill="#FFF" fill-rule="nonzero">
        <path d="M85.032 76.852c-.328-.244-.7-.42-1.096-.52a5.876 5.876 0 0 0-1.442-.159 5.099 5.099 0 0 0-1.716.29 4.022 4.022 0 0 0-1.443.837c-.408.406-.719.9-.908 1.444a4.83 4.83 0 0 0-.332 1.834V82.6c-.013.632.1 1.26.332 1.848.2.484.512.914.908 1.256.424.338.916.58 1.443.708.559.153 1.136.231 1.716.231.294-.003.588-.027.88-.072l.836-.173.692-.217.476-.188V84.55h-.144l-.447.188-.65.216-.793.174c-.28.045-.565.07-.85.072a4.32 4.32 0 0 1-1.096-.144 2.494 2.494 0 0 1-.866-.463 2.18 2.18 0 0 1-.576-.794c-.141-.383-.21-.79-.202-1.198v-.578h3.028a4.22 4.22 0 0 0 1.341-.202c.367-.117.706-.31.995-.563.275-.251.487-.563.62-.91.15-.387.223-.799.217-1.213a2.978 2.978 0 0 0-.26-1.3 2.498 2.498 0 0 0-.663-.982zm-.707 2.888a.939.939 0 0 1-.317.491c-.175.157-.39.262-.62.303-.32.082-.65.121-.98.116H79.84v-.13a3.86 3.86 0 0 1 .188-1.3c.101-.346.284-.663.533-.924a2.22 2.22 0 0 1 .851-.52c.38-.108.773-.162 1.168-.159.261 0 .522.024.779.073.212.04.413.123.591.245.162.114.291.268.375.448.094.213.139.445.13.679.008.23-.026.46-.101.678h-.029zM70.394 86.398V72.534h-3.316v1.444h1.73v12.42zM72.125 73.978h1.73v12.42h1.587V72.534h-3.317zM91.16 76.635c-.6.21-1.146.55-1.6.997a4.78 4.78 0 0 0-1.096 1.632 5.668 5.668 0 0 0-.404 2.224v.65a4.685 4.685 0 0 0 .245 1.631c.146.427.377.82.678 1.156.283.293.628.52 1.01.664.39.157.806.235 1.225.23.581 0 1.157-.102 1.702-.302a4.15 4.15 0 0 0 .678-.275c.207-.084.41-.18.605-.289l.332-.173v.405a4.44 4.44 0 0 1-.216 1.444 2.08 2.08 0 0 1-.692.996c-.356.275-.77.463-1.212.549a7.835 7.835 0 0 1-1.774.173h-1.73v1.444h1.73a9.433 9.433 0 0 0 2.322-.26 4.44 4.44 0 0 0 1.716-.837c.48-.379.853-.877 1.082-1.444.26-.707.382-1.457.36-2.21v-8.809h-3.028a5.401 5.401 0 0 0-1.932.404zm3.375 6.874l-.288.145c-.411.197-.835.366-1.27.505a4.895 4.895 0 0 1-1.441.217c-.266.004-.53-.04-.78-.13a1.442 1.442 0 0 1-.59-.405c-.171-.2-.295-.437-.36-.693a2.993 2.993 0 0 1-.145-1.01v-.65a4.786 4.786 0 0 1 .245-1.56c.143-.44.379-.844.692-1.184a2.754 2.754 0 0 1 1.082-.751c.459-.18.949-.268 1.442-.26h1.442l-.029 5.776zM105.553 84.636l-.65.216-.792.174c-.282.046-.566.07-.851.072a4.32 4.32 0 0 1-1.096-.145 2.494 2.494 0 0 1-.865-.462 1.993 1.993 0 0 1-.563-.794 3.022 3.022 0 0 1-.216-1.199v-.577h3.028a4.22 4.22 0 0 0 1.341-.202c.37-.11.71-.303.995-.564.28-.246.493-.559.62-.91.15-.386.223-.798.217-1.212a2.978 2.978 0 0 0-.26-1.3 2.353 2.353 0 0 0-.72-.91 3.142 3.142 0 0 0-1.082-.52 6.092 6.092 0 0 0-1.442-.159 5.012 5.012 0 0 0-1.702.29c-.51.18-.976.465-1.37.837a4.03 4.03 0 0 0-.923 1.444 4.83 4.83 0 0 0-.332 1.834v2.022c-.013.632.1 1.26.332 1.848.21.482.526.911.923 1.257.4.33.868.572 1.37.707a6.381 6.381 0 0 0 1.702.231c.294-.003.588-.027.88-.072l.836-.173.706-.217.462-.188V84.52h-.144l-.404.116zm-5.033-4.16a3.86 3.86 0 0 1 .187-1.299c.104-.341.287-.653.534-.91.244-.239.54-.417.865-.52.375-.109.764-.162 1.154-.158.261 0 .522.024.779.072.213.036.415.12.59.245.163.114.292.269.376.448.094.213.139.445.13.679.003.224-.026.448-.087.664a1.04 1.04 0 0 1-.317.49c-.18.158-.4.263-.635.304-.32.083-.65.122-.98.116h-2.596v-.13zM65.03 77.53a3.447 3.447 0 0 0-1.356-1.025 4.97 4.97 0 0 0-2.004-.36 4.71 4.71 0 0 0-1.933.36 3.605 3.605 0 0 0-1.442 1.026 4.479 4.479 0 0 0-.822 1.588 7.722 7.722 0 0 0-.202 2.065c-.01.75.078 1.497.26 2.224.147.609.412 1.183.779 1.69.383.468.88.831 1.442 1.054.63.263 1.308.39 1.99.376a4.652 4.652 0 0 0 1.932-.376 3.85 3.85 0 0 0 1.442-1.054 4.595 4.595 0 0 0 .808-1.69c.15-.73.199-1.48.144-2.224.006-.7-.077-1.399-.245-2.08a4.219 4.219 0 0 0-.793-1.573zm-.678 5.214c-.074.44-.23.86-.462 1.242-.21.343-.509.622-.865.809a3.154 3.154 0 0 1-2.696 0 2.222 2.222 0 0 1-.866-.81 3.527 3.527 0 0 1-.461-1.241 8.676 8.676 0 0 1-.144-1.545c.004-.485.052-.968.144-1.444a2.89 2.89 0 0 1 .461-1.127 2.12 2.12 0 0 1 .866-.722 3.831 3.831 0 0 1 2.696 0c.348.158.647.408.865.722.232.339.39.723.462 1.127a8.676 8.676 0 0 1 0 2.99v-.001zM55.324 79.466v-2.614a4.324 4.324 0 0 0-.519-.274 4.855 4.855 0 0 0-.692-.217 7.274 7.274 0 0 0-.808-.173 5.616 5.616 0 0 0-.85 0 4.523 4.523 0 0 0-1.587.274 4.008 4.008 0 0 0-2.422 2.195 4.222 4.222 0 0 0-.375 1.863v1.733c.014.623.136 1.238.36 1.82.195.51.494.972.88 1.357.414.375.907.651 1.442.809a5.761 5.761 0 0 0 1.774.274c.274.015.548.015.822 0l.764-.159.635-.216c.172-.062.34-.134.504-.217v-1.444h-.144a3.257 3.257 0 0 1-.447.217c-.197.082-.4.15-.606.202a4.84 4.84 0 0 1-.72.159 4.666 4.666 0 0 1-.808.072 2.695 2.695 0 0 1-2.106-.766 2.978 2.978 0 0 1-.706-2.151v-1.733c-.01-.457.062-.913.216-1.343.14-.336.346-.64.606-.896.257-.221.556-.388.88-.49a3.125 3.125 0 0 1 1.038-.16c.276 0 .551.03.822.087.213.044.421.112.62.202v1.589h1.427zM103.217 56.317l.894-.549.764-.491c.257-.158.521-.303.793-.433.244-.126.5-.228.764-.303.227-.084.466-.128.707-.13.257-.004.513.045.75.144a.981.981 0 0 1 .433.404c.108.198.181.413.216.636a7.39 7.39 0 0 1 0 .837v9.647h4.918v-10.99a7.447 7.447 0 0 0-.26-2.05 4.335 4.335 0 0 0-.764-1.56 3.72 3.72 0 0 0-1.442-.982 5.2 5.2 0 0 0-1.976-.347 6.006 6.006 0 0 0-1.442.16 7.52 7.52 0 0 0-1.255.418c-.425.19-.834.412-1.226.664-.403.275-.836.564-1.283.896l-.663.476v-2.382h-4.86v15.697h4.932v-9.762zM50.84 66.021l1.629.217c.534 0 1.01.072 1.442.072h1.11c1.121.012 2.24-.109 3.332-.361a7.364 7.364 0 0 0 2.624-1.14 5.442 5.442 0 0 0 1.731-2.051c.43-.967.637-2.019.606-3.076a6.331 6.331 0 0 0-1.24-4.116 6.92 6.92 0 0 0-3.692-2.166l-3.36-.896a4.51 4.51 0 0 1-.78-.274 2.134 2.134 0 0 1-.634-.39 1.646 1.646 0 0 1-.432-.563 1.663 1.663 0 0 1-.173-.794 1.735 1.735 0 0 1 .245-.954c.16-.246.377-.45.634-.592.291-.14.603-.233.923-.274.367-.06.739-.088 1.11-.087H58.08c.461 0 .923.087 1.442.16.52.071.952.13 1.442.216s.808.159 1.082.23h.23v-4.1a12.817 12.817 0 0 0-1.168-.318l-1.442-.246c-.49-.072-.98-.13-1.442-.158-.461-.03-.88 0-1.226 0h-1.11a13.423 13.423 0 0 0-3.1.346 7.566 7.566 0 0 0-2.524 1.098 5.21 5.21 0 0 0-1.702 1.92 5.87 5.87 0 0 0-.635 2.802 7.23 7.23 0 0 0 .361 2.426c.213.64.54 1.238.966 1.762a5.28 5.28 0 0 0 1.442 1.184c.55.305 1.136.538 1.745.693l3.36.896c.314.081.622.182.923.303.287.106.554.257.793.447.223.168.41.38.548.621.138.268.207.566.202.867.012.39-.072.777-.245 1.126a1.848 1.848 0 0 1-.649.722 2.767 2.767 0 0 1-.995.39 5.76 5.76 0 0 1-1.254.13h-1.11c-.517 0-1.032-.034-1.544-.1-.548 0-1.082-.13-1.615-.217a19.53 19.53 0 0 1-1.442-.29l-1.168-.288h-.245v4.101c.47.164.952.294 1.442.39.302.13.85.231 1.398.332zM118.445 44.547h4.932v4.044h-4.932zM157.555 66.31a6.38 6.38 0 0 0 1.197-.101c.37-.069.733-.175 1.082-.318.361-.14.713-.304 1.052-.49.332-.203.692-.42 1.039-.665l1.124-.78v2.123h4.932V50.382h-7.21a10.082 10.082 0 0 0-3.288.52 7.64 7.64 0 0 0-2.625 1.443 7.09 7.09 0 0 0-1.745 2.398 7.605 7.605 0 0 0-.59 3.336v3.148c-.013.739.094 1.475.316 2.18a4.156 4.156 0 0 0 2.567 2.629 6.15 6.15 0 0 0 2.149.274zm-.1-8.231a3.396 3.396 0 0 1 .98-2.715 4.048 4.048 0 0 1 2.884-.881h1.788v5.95l-.894.563-.707.418a8.68 8.68 0 0 1-.75.347c-.243.104-.494.19-.75.26-.23.06-.467.094-.706.101a1.844 1.844 0 0 1-1.356-.433 1.88 1.88 0 0 1-.432-1.372l-.058-2.238zM148.715 66.093V44.547h-7.182v4.03h2.25v17.516zM182.143 65.3a4.333 4.333 0 0 0 2.394-4.145 4.656 4.656 0 0 0-.375-1.95 4.332 4.332 0 0 0-.995-1.329 5.176 5.176 0 0 0-1.442-.852c-.526-.2-1.066-.36-1.616-.476l-2.134-.448-.562-.144a2.161 2.161 0 0 1-.49-.174 1.053 1.053 0 0 1-.376-.274.665.665 0 0 1-.13-.419.491.491 0 0 1 .29-.462c.224-.107.461-.185.706-.23.277-.046.556-.074.836-.088h.736c.747.001 1.493.045 2.235.13.75.102 1.442.203 2.134.318h.23v-4.159l-.95-.173-1.126-.145-1.197-.1h-1.182a16.043 16.043 0 0 0-3.086.274 8.299 8.299 0 0 0-2.51.895 4.877 4.877 0 0 0-1.672 1.574 4.25 4.25 0 0 0-.606 2.31c.004.493.092.982.26 1.445.167.474.432.907.778 1.27.391.413.85.755 1.356 1.012.626.315 1.29.548 1.976.693l2.466.563c.317.058.623.165.908.318.23.152.357.418.332.693a.563.563 0 0 1-.332.52c-.241.136-.505.229-.779.274a4.882 4.882 0 0 1-.923.087h-.778c-.83 0-1.657-.048-2.48-.145a39.032 39.032 0 0 1-2.553-.404h-.231v4.144c.36.087.764.16 1.182.232.419.072.866.13 1.327.173l1.442.115h1.442a18.434 18.434 0 0 0 3-.23 7.937 7.937 0 0 0 2.495-.694zM88.868 63.956v2.123H93.8V50.382h-7.21a10.082 10.082 0 0 0-3.289.52 7.64 7.64 0 0 0-2.624 1.443 7.09 7.09 0 0 0-1.745 2.398 7.605 7.605 0 0 0-.592 3.336v3.148c-.012.739.095 1.475.318 2.18a4.156 4.156 0 0 0 2.567 2.629 6.15 6.15 0 0 0 2.148.346 6.38 6.38 0 0 0 1.197-.1c.37-.07.733-.176 1.082-.319.357-.14.704-.303 1.038-.49.346-.203.707-.42 1.053-.665l1.125-.852zm-2.394-2.267c-.244.104-.494.19-.75.26-.231.06-.468.094-.707.1a1.844 1.844 0 0 1-1.355-.432 1.821 1.821 0 0 1-.447-1.372v-2.166a3.44 3.44 0 0 1 .98-2.715 4.106 4.106 0 0 1 2.884-.881h1.789v5.95l-.952.534-.707.419a8.327 8.327 0 0 1-.735.303zM139.312 63.71a4.64 4.64 0 0 0 .65-2.555 4.439 4.439 0 0 0-.376-1.95 4.13 4.13 0 0 0-.98-1.329 5.493 5.493 0 0 0-1.442-.852 10.372 10.372 0 0 0-1.615-.476l-2.12-.448-.563-.144a2.305 2.305 0 0 1-.505-.174.894.894 0 0 1-.36-.274.593.593 0 0 1-.144-.419.52.52 0 0 1 .288-.462c.225-.107.462-.185.707-.23.282-.045.566-.074.85-.088h.736a19.47 19.47 0 0 1 2.221.13c.75.102 1.442.203 2.149.318h.216v-4.159l-.952-.173-1.125-.145-1.197-.1h-1.182a16.043 16.043 0 0 0-3.086.274 8.213 8.213 0 0 0-2.495.895c-.678.38-1.252.92-1.673 1.574a4.25 4.25 0 0 0-.62 2.31c.004.493.092.982.26 1.445.178.468.442.9.778 1.27.415.423.904.766 1.442 1.012.621.315 1.28.548 1.962.693l2.466.563c.317.058.624.165.908.318.23.152.357.418.332.693a.563.563 0 0 1-.332.52c-.241.136-.505.229-.779.274a4.882 4.882 0 0 1-.922.087h-.765c-.829 0-1.657-.048-2.48-.145a37.966 37.966 0 0 1-2.567-.404h-.23v4.144l1.196.232c.418.072.865.13 1.312.173l1.442.115h1.443c1 .006 1.998-.071 2.985-.23a7.938 7.938 0 0 0 2.394-.694 4.675 4.675 0 0 0 1.773-1.588zM116.21 54.41h2.235v11.683h4.932V50.382h-7.167zM73.798 61.877a1.946 1.946 0 0 1-.894-.564 2.037 2.037 0 0 1-.476-.967 6.03 6.03 0 0 1-.144-1.444V54.41h4.095v-4.03h-4.038V46.31h-4.99v4.073h-2.509v4.029h2.466v5.617c-.021.902.13 1.799.447 2.643a5.113 5.113 0 0 0 1.284 1.906 5.636 5.636 0 0 0 2.048 1.126 8.886 8.886 0 0 0 2.725.376h2.884v-4.03h-1.5a4.796 4.796 0 0 1-1.398-.172zM20.19 50.862l-1.443-.52L20.925 85s-.289 5.661-.548 7.986a12.364 12.364 0 0 0-.173 3.943c.461.823 1.11 1.978 1.976 1.978.865 0 1.182-2.484 1.182-4.03 0-.822-.187-3.335-.404-4.866-.057-.823-2.769-39.15-2.769-39.15z"/>
        <path d="M24.833 14.297l-.144-2.643 1.442-.737c.18-.53.273-1.086.274-1.646a2.883 2.883 0 0 1-2.625 1.444c-2.004-.1-2.639-3.105-2.567-5.199.154-1.72.644-3.393 1.442-4.924V0a2.22 2.22 0 0 0-1.543.794c-.302.433-2.422 5.459-2.422 5.459s1.182 3.437 2.624 4.534c.765.593.36 2.484.26 2.889-1.875-.202-4.788-.275-5.206 1.068-.534 1.762-2.51 11.019-2.51 11.019s-1.802 1.53-4.903 3.856a18.51 18.51 0 0 1-4.326 2.44 17.008 17.008 0 0 0-2.322.145 695.025 695.025 0 0 0-.764-3.625l-.1-.318s-.549-.072-.42-.823c.13-.75-.273-.635-.273-.635s-.837.577-.736 1.184c.085.49.36.926.765 1.213l.663 3.177a.923.923 0 0 0-.317.188c-.548.548-1.442 1.993-.332 3.061a9.852 9.852 0 0 0 1.586 1.271l10.6 51.194s.187 1.357.649 1.357c.461 0-6.634-35.02-10.196-51.901a3.63 3.63 0 0 0 .13-1.849 4.71 4.71 0 0 0-.85-1.718l2.883-.39a5.401 5.401 0 0 1 2.567 3.957c.967.13 7.095-5.892 8.047-6.845.952-.953 2.394-10.109 2.654-12 .072-.55.173-1.156.504-1.344a5.07 5.07 0 0 1 3.404.26c1.442.491 3.071 1.53 3.345 2.6a87.024 87.024 0 0 1 2.265 30.658l-2.077.303c.173 14.889-.606 32.97-.606 32.97s2.711 6.238 3.807 5.14c.375-2.57-1.557-6.296-1.557-6.296s2.697-29.128 3.23-32.911c.418-3.019 1.442-1.199 1.745-.592.577 1.328-.952 2.397-.331 2.729.62.332 2.12-1.228 2.004-3.668-1.067-20.78-5.336-32.377-5.61-32.666a13.53 13.53 0 0 0-4.153-1.588z"/>
    </g>
</svg>